<?xml version="1.0" encoding="UTF-8" standalone="no"?>
<svg
   width="120mm"
   height="120mm"
   version="1.1"
   viewBox="55 55 120 120"
   xmlns="http://www.w3.org/2000/svg">
  <path
     d="M 80.206999,61.137999 H 156.242 c 0.99999,0 1.805,0.80505 1.805,1.805 v 7.7926 c 0,0.99999 -0.80505,1.805 -1.805,1.805 H 80.206999 c -0.99999,0 -1.805,-0.80505 -1.805,-1.805 v -7.7926 c 0,-1 0.80505,-1.805 1.805,-1.805 z"
     fill="#262638"
     stroke-width="0.7345"
     style="font-variation-settings:'wght' 700" />
  <path
     d="m 81.801999,63.477999 h 4.632 c 0.57594,0 1.0396,0.46366 1.0396,1.0396 v 4.632 c 0,0.57594 -0.46366,1.0396 -1.0396,1.0396 h -4.632 c -0.57594,0 -1.0396,-0.46367 -1.0396,-1.0396 v -4.632 c 0,-0.57594 0.46366,-1.0396 1.0396,-1.0396 z"
     fill="#e46870" />
  <path
     d="m 111.944,63.477999 h 4.632 c 0.57594,0 1.0396,0.46366 1.0396,1.0396 v 4.632 c 0,0.57594 -0.46366,1.0396 -1.0396,1.0396 h -4.632 c -0.57594,0 -1.0396,-0.46367 -1.0396,-1.0396 v -4.632 c 0,-0.57594 0.46366,-1.0396 1.0396,-1.0396 z"
     fill="#e0947a" />
  <path
     d="m 135.073,63.477999 h 4.632 c 0.57594,0 1.0396,0.46366 1.0396,1.0396 v 4.632 c 0,0.57594 -0.46367,1.0396 -1.0396,1.0396 h -4.632 c -0.57594,0 -1.0396,-0.46367 -1.0396,-1.0396 v -4.632 c 0,-0.57594 0.46366,-1.0396 1.0396,-1.0396 z"
     fill="#68c898" />
  <path
     d="m 142.893,63.477999 h 4.632 c 0.57594,0 1.0396,0.46366 1.0396,1.0396 v 4.632 c 0,0.57594 -0.46367,1.0396 -1.0396,1.0396 h -4.632 c -0.57594,0 -1.0396,-0.46367 -1.0396,-1.0396 v -4.632 c 0,-0.57594 0.46366,-1.0396 1.0396,-1.0396 z"
     fill="#78a0e0" />
  <path
     d="m 150.643,63.477999 h 4.632 c 0.57594,0 1.0396,0.46366 1.0396,1.0396 v 4.632 c 0,0.57594 -0.46366,1.0396 -1.0396,1.0396 h -4.632 c -0.57595,0 -1.0396,-0.46367 -1.0396,-1.0396 v -4.632 c 0,-0.57594 0.46366,-1.0396 1.0396,-1.0396 z"
     fill="#d4d6e8" />
  <path
     d="m 119.872,63.477999 h 4.632 c 0.57594,0 1.0396,0.46366 1.0396,1.0396 v 4.632 c 0,0.57594 -0.46366,1.0396 -1.0396,1.0396 h -4.632 c -0.57594,0 -1.0396,-0.46367 -1.0396,-1.0396 v -4.632 c 0,-0.57594 0.46366,-1.0396 1.0396,-1.0396 z"
     fill="#e0b870" />
  <path
     d="m 158.33664,131.6716 c -0.12832,0.003 -0.19643,0.26954 -0.17364,0.78599 0.54648,12.38041 -7.09733,24.20785 -18.5105,28.16728 10.01429,-2.98147 16.99846,-9.0918 21.79816,-17.20205 -0.0395,-0.84412 -0.11406,-1.68727 -0.22324,-2.52698 -0.38689,-2.97556 -1.20681,-5.87556 -2.43086,-8.60826 -0.18648,-0.4163 -0.3467,-0.61873 -0.45992,-0.61598 z"
     style="fill:#6c90cc;stroke-width:0.864434;stroke-linecap:round;stroke-linejoin:round" />
  <path
     style="fill:#d4d6e8;fill-opacity:1;stroke:none;stroke-width:3.85028;stroke-linejoin:round"
     d="m 159.46783,101.40574 a 38.322111,38.322111 0 0 0 -12.97956,-4.414711 38.322111,38.322111 0 0 0 -4.99608,-0.41342 38.322111,38.322111 0 0 0 -38.55733,32.666741 38.322111,38.322111 0 0 0 0.0377,11.54658 c -0.92093,-9.45057 6.1781,-18.84905 25.47854,-20.61166 0.67902,-0.062 1.78223,-0.13931 2.46084,-0.20567 14.9243,-1.45944 24.01102,-9.33261 28.55587,-18.56786 z" />
  <path
     style="fill:#78a0e0;stroke-width:7;stroke-linejoin:round"
     d="m 82.159897,75.020789 c -4.809993,0 -10.917396,3.24813 -12.896371,7.62692 -17.43211,38.571301 13.621557,87.422191 57.194434,87.422061 10.2222,0.0564 40.40314,-2.412 41.88892,-33.39124 0.15066,-3.14132 0.11302,-11.27441 -0.28112,-10.39782 -4.19251,17.63579 -13.38526,31.35682 -32.0089,35.25108 -1.02608,0.21455 -2.71018,0.44921 -3.75688,0.50539 -14.28742,0.76693 -25.2746,-7.70074 -28.46337,-17.24339 l -0.0181,0.007 a 38.322111,38.322111 0 0 1 -0.0853,-0.32453 c -0.38389,-1.2179 -0.64053,-2.45208 -0.76068,-3.68505 a 38.322111,38.322111 0 0 1 -0.0377,-11.54658 38.322111,38.322111 0 0 1 38.55734,-32.666741 38.322111,38.322111 0 0 1 4.99607,0.41341 38.322111,38.322111 0 0 1 12.97957,4.414721 c 3.32037,-6.747051 4.21658,-14.221291 3.19309,-20.451981 -0.55322,-3.36782 -4.50233,-5.93297 -7.92458,-5.93297 z M 64.334112,106.48089 c -7.172986,10.39064 -9.42405,21.22037 -3.758427,17.26302 1.55045,-1.08296 3.435223,-2.21296 5.530928,-3.40444 -1.107902,-4.53805 -1.717413,-9.18804 -1.772501,-13.85858 z m 39.399138,37.99509 a 38.322111,38.322111 0 0 0 0.0853,0.32453 l 0.0181,-0.007 c -0.0354,-0.10591 -0.0699,-0.21166 -0.10335,-0.31781 z" />
  <path
     d="m 140.09861,84.215689 c -0.55689,0.57248 -0.82504,1.32402 -0.79529,2.06913 0.0384,0.96309 0.37184,0.78953 0.73464,-0.10701 0.2871,-0.7095 0.81096,-1.13069 1.07011,-1.25184 0.75895,-0.35479 1.76048,0.0229 2.34743,0.89167 0.5714,0.84574 0.99274,0.98711 0.86967,-0.0204 -0.2366,-1.93697 -2.41432,-3.44439 -4.22656,-1.58151 z"
     style="fill:#ffffff;fill-opacity:1;stroke:none;stroke-width:0.202392;stroke-linecap:round;stroke-linejoin:round" />
</svg>
