<?xml version="1.0" encoding="UTF-8" standalone="no"?>
<!-- Created with Inkscape (http://www.inkscape.org/) -->

<svg
   width="225.80533mm"
   height="225.80533mm"
   viewBox="0 0 225.80533 225.80533"
   version="1.1"
   id="svg1"
   xml:space="preserve"
   sodipodi:docname="wayle-settings.svg"
   inkscape:version="1.4.3 (0d15f75042, 2025-12-25)"
   inkscape:export-filename="wayle-settings.svg"
   inkscape:export-xdpi="96"
   inkscape:export-ydpi="96"
   xmlns:inkscape="http://www.inkscape.org/namespaces/inkscape"
   xmlns:sodipodi="http://sodipodi.sourceforge.net/DTD/sodipodi-0.dtd"
   xmlns="http://www.w3.org/2000/svg"
   xmlns:svg="http://www.w3.org/2000/svg"><sodipodi:namedview
     id="namedview1"
     pagecolor="#ffffff"
     bordercolor="#000000"
     borderopacity="0.25"
     inkscape:showpageshadow="2"
     inkscape:pageopacity="0.0"
     inkscape:pagecheckerboard="0"
     inkscape:deskcolor="#d1d1d1"
     inkscape:document-units="mm"
     inkscape:zoom="0.28791753"
     inkscape:cx="-875.25063"
     inkscape:cy="-428.94227"
     inkscape:window-width="3824"
     inkscape:window-height="1541"
     inkscape:window-x="0"
     inkscape:window-y="0"
     inkscape:window-maximized="1"
     inkscape:current-layer="g2" /><defs
     id="defs1" /><path
     id="path8"
     style="font-variation-settings:'wght' 700;display:inline;fill:#d4d6e8;fill-opacity:1;stroke:none;stroke-width:7.61922;stroke-linejoin:round;stroke-opacity:1"
     d="m 204.68694,89.188461 a 75.736846,75.932564 0 0 0 -25.65182,-8.747434 75.736846,75.932564 0 0 0 -9.87387,-0.819154 75.736846,75.932564 0 0 0 -76.20171,64.726847 75.736846,75.932564 0 0 0 0.07458,22.87874 c -1.820063,-18.72568 12.20991,-37.3481 50.3538,-40.84059 1.34197,-0.12299 3.52226,-0.27604 4.8634,-0.40752 29.49525,-2.89177 47.45352,-18.49187 56.43561,-36.790889 z" /><g
     style="fill:#e3e3e3"
     id="g1"
     transform="matrix(0.17136626,0,0,0.17207071,280.1601,586.43847)"><g
       style="fill:#e3e3e3"
       id="g2"
       transform="matrix(0.81504213,0,0,0.81504213,514.05865,933.00614)"><path
         d="m -1638.9973,-3819.4525 -12.5406,-100.3243 q -10.1892,-3.9189 -19.2027,-9.4054 -9.0135,-5.4865 -17.6351,-11.7568 l -93.2703,39.1892 -86.2162,-148.9189 80.7297,-61.1351 q -0.7838,-5.4865 -0.7838,-10.5811 v -21.1622 q 0,-5.0946 0.7838,-10.581 l -80.7297,-61.1352 86.2162,-148.9189 93.2703,39.1892 q 8.6216,-6.2703 18.027,-11.7568 9.4054,-5.4865 18.8108,-9.4054 l 12.5406,-100.3243 h 172.4324 l 12.5405,100.3243 q 10.1892,3.9189 19.2027,9.4054 9.0136,5.4865 17.6352,11.7568 l 93.2702,-39.1892 86.2163,148.9189 -80.7298,61.1352 q 0.7838,5.4864 0.7838,10.581 v 21.1622 q 0,5.0946 -1.5675,10.5811 l 80.7297,61.1351 -86.2162,148.9189 -92.4865,-39.1892 q -8.6216,6.2703 -18.0271,11.7568 -9.4054,5.4865 -18.8108,9.4054 l -12.5405,100.3243 z m 87.7837,-203.7838 q 45.4595,0 77.5946,-32.1351 32.1352,-32.1351 32.1352,-77.5946 0,-45.4594 -32.1352,-77.5946 -32.1351,-32.1351 -77.5946,-32.1351 -46.2432,0 -77.9864,32.1351 -31.7433,32.1352 -31.7433,77.5946 0,45.4595 31.7433,77.5946 31.7432,32.1351 77.9864,32.1351 z"
         id="path1"
         style="fill:#262638;fill-opacity:1;stroke:none;stroke-width:0.790377;stroke-dasharray:none" /></g></g><path
     d="m 202.31657,149.23425 c -0.25319,0.007 -0.38757,0.53182 -0.3426,1.55082 1.07825,24.42756 -14.00362,47.76405 -36.52273,55.57634 19.75902,-5.88267 33.53935,-17.93885 43.00955,-33.94104 -0.078,-1.66553 -0.22505,-3.32912 -0.44047,-4.98595 -0.76336,-5.87101 -2.38113,-11.59296 -4.79629,-16.98479 -0.36794,-0.8214 -0.68406,-1.22081 -0.90746,-1.21538 z"
     style="font-variation-settings:'wght' 700;display:inline;fill:#6c90cc;stroke-width:1.7056;stroke-linecap:round;stroke-linejoin:round"
     id="path18" /><path
     id="path20"
     style="font-variation-settings:'wght' 700;display:inline;fill:#78a0e0;stroke-width:13.8116;stroke-linejoin:round"
     d="m 52.013637,37.457601 c -9.490508,0 -21.540913,6.408827 -25.445591,15.048536 -34.394974,76.104293 26.876442,172.491093 112.849304,172.490833 20.16922,0.11123 79.71868,-4.75908 82.65025,-65.88364 0.29727,-6.19808 0.22299,-22.24533 -0.55468,-20.51574 -8.27217,34.79684 -26.4102,61.86955 -63.15617,69.55324 -2.02454,0.42333 -5.34741,0.88633 -7.41262,0.99718 -28.19027,1.51321 -49.86887,-15.19419 -56.160569,-34.02261 l -0.03577,0.0138 a 75.612649,75.612649 0 0 1 -0.168295,-0.64031 c -0.757453,-2.40302 -1.263818,-4.83816 -1.500892,-7.2709 a 75.612649,75.612649 0 0 1 -0.07437,-22.78235 75.612649,75.612649 0 0 1 76.076796,-64.454124 75.612649,75.612649 0 0 1 9.85765,0.815693 75.612649,75.612649 0 0 1 25.60976,8.710592 c 6.55136,-13.312477 8.31965,-28.059761 6.30022,-40.353416 -1.09155,-6.644984 -8.88347,-11.706234 -15.63585,-11.706234 z M 16.841911,99.530941 C 2.6890229,120.03251 -1.7525093,141.40044 9.4262278,133.59227 12.485391,131.4555 16.204202,129.22592 20.339199,126.87503 18.153218,117.92109 16.950603,108.7463 16.841911,99.530941 Z m 77.737726,74.967409 a 75.612649,75.612649 0 0 0 0.168317,0.64031 l 0.03566,-0.0138 c -0.0698,-0.20897 -0.137917,-0.41762 -0.203945,-0.62707 z" /><path
     d="m 166.33143,55.599887 c -1.09877,1.129557 -1.62785,2.612404 -1.56916,4.082555 0.0757,1.900257 0.73368,1.557819 1.4495,-0.211137 0.56649,-1.399889 1.60008,-2.230946 2.11144,-2.469979 1.49745,-0.700032 3.47357,0.0452 4.63166,1.759345 1.1274,1.668714 1.95876,1.947636 1.71594,-0.04034 -0.46683,-3.821794 -4.76368,-6.796057 -8.33938,-3.120442 z"
     style="font-variation-settings:'wght' 700;display:inline;fill:#ffffff;fill-opacity:1;stroke:none;stroke-width:0.399336;stroke-linecap:round;stroke-linejoin:round;stroke-opacity:1"
     id="path47" /><path
     style="font-variation-settings:'wght' 700;display:inline;fill:#78a0e0;fill-opacity:1;stroke:none;stroke-width:4.12404;stroke-linecap:round;stroke-linejoin:round;stroke-dasharray:none;stroke-opacity:1"
     d="m 132.31916,32.731526 c -1.34911,-14.730732 -8.4993,-17.488622 -13.20017,-15.642089 -0.58984,0.231683 -1.48281,0.753892 -1.98791,1.137055 -5.96479,4.524972 0.35499,12.188351 14.15793,15.402186 0.61781,0.143857 1.088,-0.265434 1.03015,-0.897152 z"
     id="path10-6" /><path
     style="font-variation-settings:'wght' 700;display:inline;fill:#78a0e0;fill-opacity:1;stroke:none;stroke-width:2.92006;stroke-linecap:round;stroke-linejoin:round;stroke-dasharray:none;stroke-opacity:1"
     d="m 131.03078,18.357849 c 0.60142,-2.770993 0.51241,-4.961018 0.0393,-6.697424 -1.35674,-4.9782494 -6.83867,-3.7775011 -5.83902,-0.28813 0.76256,2.661871 2.29408,5.405684 5.2336,7.229083 0.24499,0.151966 0.50507,0.03825 0.56624,-0.243529 z"
     id="path10-9-1" /><path
     style="font-variation-settings:'wght' 700;display:inline;fill:#78a0e0;fill-opacity:1;stroke:none;stroke-width:5.49732;stroke-linecap:round;stroke-linejoin:round;stroke-dasharray:none;stroke-opacity:1"
     d="M 135.47597,33.38181 C 154.40582,21.59103 152.2851,5.3462683 145.75152,1.8773917 144.77617,1.3595501 142.9486,1.1016888 141.84539,1.2019591 c -7.95358,0.7228953 -9.77091,13.3828589 -8.27558,31.2069179 0.0927,1.10621 0.96396,1.559803 1.90616,0.972933 z"
     id="path10-5-0" /></svg>
